<mxfile host="65bd71144e">
    <diagram id="Im50z9Jjx5_mcuX_7Bio" name="Page-1">
        <mxGraphModel dx="1208" dy="787" grid="1" gridSize="10" guides="1" tooltips="1" connect="1" arrows="1" fold="1" page="1" pageScale="1" pageWidth="850" pageHeight="1100" math="0" shadow="0">
            <root>
                <mxCell id="0"/>
                <mxCell id="1" parent="0"/>
                <mxCell id="3" value="N" style="edgeStyle=none;html=1;endArrow=none;endFill=0;" edge="1" parent="1" source="2">
                    <mxGeometry relative="1" as="geometry">
                        <mxPoint x="370" y="110" as="targetPoint"/>
                    </mxGeometry>
                </mxCell>
                <mxCell id="2" value="CURSO" style="rounded=1;whiteSpace=wrap;html=1;fillColor=#1ba1e2;fontColor=#ffffff;strokeColor=#FFFFFF;fontStyle=1;strokeWidth=2;" vertex="1" parent="1">
                    <mxGeometry x="120" y="80" width="120" height="60" as="geometry"/>
                </mxCell>
                <mxCell id="5" value="N" style="edgeStyle=none;html=1;endArrow=none;endFill=0;" edge="1" parent="1" source="4">
                    <mxGeometry relative="1" as="geometry">
                        <mxPoint x="570" y="110" as="targetPoint"/>
                    </mxGeometry>
                </mxCell>
                <mxCell id="4" value="MATRICULA" style="rhombus;whiteSpace=wrap;html=1;fillColor=#e3c800;fontColor=#FAFAFA;strokeColor=#FFFFFF;fontStyle=1;strokeWidth=2;" vertex="1" parent="1">
                    <mxGeometry x="370" y="70" width="80" height="80" as="geometry"/>
                </mxCell>
                <mxCell id="7" value="ALUNO" style="rounded=1;whiteSpace=wrap;html=1;fillColor=#1ba1e2;fontColor=#ffffff;strokeColor=#FFFFFF;fontStyle=1;strokeWidth=2;" vertex="1" parent="1">
                    <mxGeometry x="570" y="80" width="120" height="60" as="geometry"/>
                </mxCell>
                <mxCell id="13" value="N" style="edgeStyle=none;html=1;entryX=0.5;entryY=1;entryDx=0;entryDy=0;endArrow=none;endFill=0;" edge="1" parent="1" source="10" target="2">
                    <mxGeometry relative="1" as="geometry"/>
                </mxCell>
                <mxCell id="14" value="N" style="edgeStyle=none;html=1;entryX=0.5;entryY=0;entryDx=0;entryDy=0;endArrow=none;endFill=0;" edge="1" parent="1" source="10" target="11">
                    <mxGeometry relative="1" as="geometry"/>
                </mxCell>
                <mxCell id="10" value="LECIONAR" style="rhombus;whiteSpace=wrap;html=1;fillColor=#e3c800;fontColor=#FAFAFA;strokeColor=#FFFFFF;fontStyle=1;strokeWidth=2;" vertex="1" parent="1">
                    <mxGeometry x="140" y="200" width="80" height="80" as="geometry"/>
                </mxCell>
                <mxCell id="15" value="N" style="edgeStyle=none;html=1;entryX=0.5;entryY=0;entryDx=0;entryDy=0;endArrow=none;endFill=0;" edge="1" parent="1" source="11" target="12">
                    <mxGeometry relative="1" as="geometry"/>
                </mxCell>
                <mxCell id="11" value="PROFESSORES" style="rounded=1;whiteSpace=wrap;html=1;fillColor=#1ba1e2;fontColor=#ffffff;strokeColor=#FFFFFF;fontStyle=1;strokeWidth=2;" vertex="1" parent="1">
                    <mxGeometry x="120" y="360" width="120" height="60" as="geometry"/>
                </mxCell>
                <mxCell id="17" value="N" style="edgeStyle=none;html=1;entryX=0.5;entryY=0;entryDx=0;entryDy=0;endArrow=none;endFill=0;" edge="1" parent="1" source="12" target="16">
                    <mxGeometry relative="1" as="geometry"/>
                </mxCell>
                <mxCell id="12" value="LECIONAR" style="rhombus;whiteSpace=wrap;html=1;fillColor=#e3c800;fontColor=#FAFAFA;strokeColor=#FFFFFF;fontStyle=1;strokeWidth=2;" vertex="1" parent="1">
                    <mxGeometry x="140" y="500" width="80" height="80" as="geometry"/>
                </mxCell>
                <mxCell id="16" value="DISCIPLINAS" style="rounded=1;whiteSpace=wrap;html=1;fillColor=#1ba1e2;fontColor=#ffffff;strokeColor=#FFFFFF;fontStyle=1;strokeWidth=2;" vertex="1" parent="1">
                    <mxGeometry x="120" y="660" width="120" height="60" as="geometry"/>
                </mxCell>
                <mxCell id="18" value="&lt;font style=&quot;font-size: 17px;&quot;&gt;DIAGRAMA DO PROFESSOR&lt;/font&gt;" style="rounded=1;whiteSpace=wrap;html=1;fillColor=#60a917;fontColor=#ffffff;strokeColor=#2D7600;fontStyle=1;strokeWidth=2;" vertex="1" parent="1">
                    <mxGeometry x="10" y="770" width="830" height="60" as="geometry"/>
                </mxCell>
                <mxCell id="22" value="N" style="edgeStyle=none;html=1;entryX=0;entryY=0.5;entryDx=0;entryDy=0;fontSize=17;fontColor=#FAFAFA;endArrow=none;endFill=0;" edge="1" parent="1" source="19" target="20">
                    <mxGeometry relative="1" as="geometry"/>
                </mxCell>
                <mxCell id="19" value="ALUNO" style="rounded=1;whiteSpace=wrap;html=1;fillColor=#1ba1e2;fontColor=#ffffff;strokeColor=#FFFFFF;fontStyle=1;strokeWidth=2;" vertex="1" parent="1">
                    <mxGeometry x="120" y="880" width="120" height="60" as="geometry"/>
                </mxCell>
                <mxCell id="23" value="N" style="edgeStyle=none;html=1;entryX=0;entryY=0.5;entryDx=0;entryDy=0;fontSize=17;fontColor=#FAFAFA;endArrow=none;endFill=0;" edge="1" parent="1" source="20" target="21">
                    <mxGeometry relative="1" as="geometry"/>
                </mxCell>
                <mxCell id="20" value="MATRICULA" style="rhombus;whiteSpace=wrap;html=1;fillColor=#e3c800;fontColor=#FAFAFA;strokeColor=#FFFFFF;fontStyle=1;strokeWidth=2;" vertex="1" parent="1">
                    <mxGeometry x="345" y="870" width="80" height="80" as="geometry"/>
                </mxCell>
                <mxCell id="26" value="N" style="edgeStyle=none;html=1;entryX=0.5;entryY=0;entryDx=0;entryDy=0;fontSize=17;fontColor=#FAFAFA;endArrow=none;endFill=0;" edge="1" parent="1" source="21" target="25">
                    <mxGeometry relative="1" as="geometry"/>
                </mxCell>
                <mxCell id="21" value="CURSO" style="rounded=1;whiteSpace=wrap;html=1;fillColor=#1ba1e2;fontColor=#ffffff;strokeColor=#FFFFFF;fontStyle=1;strokeWidth=2;" vertex="1" parent="1">
                    <mxGeometry x="540" y="880" width="120" height="60" as="geometry"/>
                </mxCell>
                <mxCell id="30" value="N" style="edgeStyle=none;html=1;fontSize=17;fontColor=#FAFAFA;endArrow=block;endFill=1;" edge="1" parent="1" source="24" target="29">
                    <mxGeometry relative="1" as="geometry"/>
                </mxCell>
                <mxCell id="24" value="PROFESSOR" style="rounded=1;whiteSpace=wrap;html=1;fillColor=#1ba1e2;fontColor=#ffffff;strokeColor=#FFFFFF;fontStyle=1;strokeWidth=2;" vertex="1" parent="1">
                    <mxGeometry x="120" y="1190" width="120" height="60" as="geometry"/>
                </mxCell>
                <mxCell id="27" value="N" style="edgeStyle=none;html=1;fontSize=17;fontColor=#FAFAFA;endArrow=none;endFill=0;" edge="1" parent="1" source="25">
                    <mxGeometry x="0.8667" relative="1" as="geometry">
                        <mxPoint x="600" y="1130" as="targetPoint"/>
                        <Array as="points">
                            <mxPoint x="600" y="1190"/>
                        </Array>
                        <mxPoint as="offset"/>
                    </mxGeometry>
                </mxCell>
                <mxCell id="25" value="COMPOSTO" style="rhombus;whiteSpace=wrap;html=1;fillColor=#e3c800;fontColor=#FAFAFA;strokeColor=#FFFFFF;fontStyle=1;strokeWidth=2;" vertex="1" parent="1">
                    <mxGeometry x="560" y="1020" width="80" height="80" as="geometry"/>
                </mxCell>
                <mxCell id="28" value="DISCIPLINA" style="rounded=1;whiteSpace=wrap;html=1;fillColor=#1ba1e2;fontColor=#ffffff;strokeColor=#FFFFFF;fontStyle=1;strokeWidth=2;" vertex="1" parent="1">
                    <mxGeometry x="545" y="1190" width="120" height="60" as="geometry"/>
                </mxCell>
                <mxCell id="31" value="N" style="edgeStyle=none;html=1;entryX=0;entryY=0.5;entryDx=0;entryDy=0;fontSize=17;fontColor=#FAFAFA;endArrow=block;endFill=1;" edge="1" parent="1" source="29" target="28">
                    <mxGeometry relative="1" as="geometry"/>
                </mxCell>
                <mxCell id="29" value="LECIONA" style="rhombus;whiteSpace=wrap;html=1;fillColor=#e3c800;fontColor=#FAFAFA;strokeColor=#FFFFFF;fontStyle=1;strokeWidth=2;" vertex="1" parent="1">
                    <mxGeometry x="345" y="1180" width="80" height="80" as="geometry"/>
                </mxCell>
            </root>
        </mxGraphModel>
    </diagram>
</mxfile>